<?xml version="1.0" encoding="utf-8" standalone="no"?>
<!DOCTYPE svg PUBLIC "-//W3C//DTD SVG 1.1//EN"
  "http://www.w3.org/Graphics/SVG/1.1/DTD/svg11.dtd">
<svg xmlns:xlink="http://www.w3.org/1999/xlink" width="614.16pt" height="360.714317pt" viewBox="0 0 614.16 360.714317" xmlns="http://www.w3.org/2000/svg" version="1.1">
 <metadata>
  <rdf:RDF xmlns:dc="http://purl.org/dc/elements/1.1/" xmlns:cc="http://creativecommons.org/ns#" xmlns:rdf="http://www.w3.org/1999/02/22-rdf-syntax-ns#">
   <cc:Work>
    <dc:type rdf:resource="http://purl.org/dc/dcmitype/StillImage"/>
    <dc:date>2026-05-16T23:34:48.996241</dc:date>
    <dc:format>image/svg+xml</dc:format>
    <dc:creator>
     <cc:Agent>
      <dc:title>Matplotlib v3.10.9, https://matplotlib.org/</dc:title>
     </cc:Agent>
    </dc:creator>
   </cc:Work>
  </rdf:RDF>
 </metadata>
 <defs>
  <style type="text/css">*{stroke-linejoin: round; stroke-linecap: butt}</style>
 </defs>
 <g id="figure_1">
  <g id="patch_1">
   <path d="M 0 360.714317 
L 614.16 360.714317 
L 614.16 0 
L 0 0 
z
" style="fill: #ffffff"/>
  </g>
  <g id="axes_1">
   <g id="patch_2">
    <path d="M 48.96 299.987875 
L 606.96 299.987875 
L 606.96 33.875875 
L 48.96 33.875875 
z
" style="fill: #ffffff"/>
   </g>
   <g id="patch_3">
    <path d="M 74.323636 111508.474781 
L 101.915877 111508.474781 
L 101.915877 109.523299 
L 74.323636 109.523299 
z
" clip-path="url(#pc202818b30)" style="fill: #3776ab; stroke: #000000; stroke-width: 0.5; stroke-linejoin: miter"/>
   </g>
   <g id="patch_4">
    <path d="M 286.571639 111508.474781 
L 314.16388 111508.474781 
L 314.16388 89.030587 
L 286.571639 89.030587 
z
" clip-path="url(#pc202818b30)" style="fill: #3776ab; stroke: #000000; stroke-width: 0.5; stroke-linejoin: miter"/>
   </g>
   <g id="patch_5">
    <path d="M 392.695641 111508.474781 
L 420.287881 111508.474781 
L 420.287881 76.007518 
L 392.695641 76.007518 
z
" clip-path="url(#pc202818b30)" style="fill: #3776ab; stroke: #000000; stroke-width: 0.5; stroke-linejoin: miter"/>
   </g>
   <g id="patch_6">
    <path d="M 498.819642 111508.474781 
L 526.411883 111508.474781 
L 526.411883 45.971875 
L 498.819642 45.971875 
z
" clip-path="url(#pc202818b30)" style="fill: #3776ab; stroke: #000000; stroke-width: 0.5; stroke-linejoin: miter"/>
   </g>
   <g id="patch_7">
    <path d="M 101.915877 111508.474781 
L 129.508117 111508.474781 
L 129.508117 94.793938 
L 101.915877 94.793938 
z
" clip-path="url(#pc202818b30)" style="fill: #ce422b; stroke: #000000; stroke-width: 0.5; stroke-linejoin: miter"/>
   </g>
   <g id="patch_8">
    <path d="M 208.039878 111508.474781 
L 235.632119 111508.474781 
L 235.632119 89.944694 
L 208.039878 89.944694 
z
" clip-path="url(#pc202818b30)" style="fill: #ce422b; stroke: #000000; stroke-width: 0.5; stroke-linejoin: miter"/>
   </g>
   <g id="patch_9">
    <path d="M 314.16388 111508.474781 
L 341.75612 111508.474781 
L 341.75612 93.215479 
L 314.16388 93.215479 
z
" clip-path="url(#pc202818b30)" style="fill: #ce422b; stroke: #000000; stroke-width: 0.5; stroke-linejoin: miter"/>
   </g>
   <g id="patch_10">
    <path d="M 420.287881 111508.474781 
L 447.880122 111508.474781 
L 447.880122 89.587646 
L 420.287881 89.587646 
z
" clip-path="url(#pc202818b30)" style="fill: #ce422b; stroke: #000000; stroke-width: 0.5; stroke-linejoin: miter"/>
   </g>
   <g id="patch_11">
    <path d="M 526.411883 111508.474781 
L 554.004123 111508.474781 
L 554.004123 98.755122 
L 526.411883 98.755122 
z
" clip-path="url(#pc202818b30)" style="fill: #ce422b; stroke: #000000; stroke-width: 0.5; stroke-linejoin: miter"/>
   </g>
   <g id="patch_12">
    <path d="M 129.508117 111508.474781 
L 157.100358 111508.474781 
L 157.100358 216.990004 
L 129.508117 216.990004 
z
" clip-path="url(#pc202818b30)" style="fill: #3c873a; stroke: #000000; stroke-width: 0.5; stroke-linejoin: miter"/>
   </g>
   <g id="patch_13">
    <path d="M 235.632119 111508.474781 
L 263.224359 111508.474781 
L 263.224359 287.891875 
L 235.632119 287.891875 
z
" clip-path="url(#pc202818b30)" style="fill: #3c873a; stroke: #000000; stroke-width: 0.5; stroke-linejoin: miter"/>
   </g>
   <g id="patch_14">
    <path d="M 554.004123 111508.474781 
L 581.596364 111508.474781 
L 581.596364 240.465788 
L 554.004123 240.465788 
z
" clip-path="url(#pc202818b30)" style="fill: #3c873a; stroke: #000000; stroke-width: 0.5; stroke-linejoin: miter"/>
   </g>
   <g id="matplotlib.axis_1">
    <g id="xtick_1">
     <g id="line2d_1">
      <path d="M 115.711997 299.987875 
L 115.711997 33.875875 
" clip-path="url(#pc202818b30)" style="fill: none; stroke-dasharray: 2.96,1.28; stroke-dashoffset: 0; stroke: #b0b0b0; stroke-opacity: 0.25; stroke-width: 0.8"/>
     </g>
     <g id="line2d_2">
      <defs>
       <path id="m21afc2f65a" d="M 0 0 
L 0 3.5 
" style="stroke: #000000; stroke-width: 0.8"/>
      </defs>
      <g>
       <use xlink:href="#m21afc2f65a" x="115.711997" y="299.987875" style="stroke: #000000; stroke-width: 0.8"/>
      </g>
     </g>
     <g id="text_1">
      <!-- Kestrel -->
      <g transform="translate(86.581733 329.188318) rotate(-30) scale(0.09 -0.09)">
       <defs>
        <path id="DejaVuSerif-4b" d="M 353 0 
L 353 331 
L 947 331 
L 947 4331 
L 353 4331 
L 353 4666 
L 2175 4666 
L 2175 4331 
L 1581 4331 
L 1581 2566 
L 3591 4331 
L 3084 4331 
L 3084 4666 
L 4634 4666 
L 4634 4331 
L 4109 4331 
L 2106 2572 
L 4347 331 
L 4878 331 
L 4878 0 
L 3794 0 
L 1581 2216 
L 1581 331 
L 2175 331 
L 2175 0 
L 353 0 
z
" transform="scale(0.015625)"/>
        <path id="DejaVuSerif-65" d="M 3469 1600 
L 991 1600 
L 991 1575 
Q 991 903 1244 561 
Q 1497 219 1991 219 
Q 2369 219 2611 417 
Q 2853 616 2950 1006 
L 3413 1006 
Q 3275 459 2904 184 
Q 2534 -91 1931 -91 
Q 1203 -91 761 389 
Q 319 869 319 1663 
Q 319 2450 753 2931 
Q 1188 3413 1894 3413 
Q 2647 3413 3050 2948 
Q 3453 2484 3469 1600 
z
M 2791 1931 
Q 2772 2513 2545 2808 
Q 2319 3103 1894 3103 
Q 1497 3103 1269 2806 
Q 1041 2509 991 1931 
L 2791 1931 
z
" transform="scale(0.015625)"/>
        <path id="DejaVuSerif-73" d="M 359 184 
L 359 959 
L 691 959 
Q 703 588 923 403 
Q 1144 219 1575 219 
Q 1963 219 2166 364 
Q 2369 509 2369 788 
Q 2369 1006 2220 1140 
Q 2072 1275 1594 1428 
L 1178 1569 
Q 750 1706 558 1912 
Q 366 2119 366 2438 
Q 366 2894 700 3153 
Q 1034 3413 1625 3413 
Q 1888 3413 2178 3344 
Q 2469 3275 2778 3144 
L 2778 2419 
L 2447 2419 
Q 2434 2741 2221 2922 
Q 2009 3103 1644 3103 
Q 1281 3103 1095 2975 
Q 909 2847 909 2591 
Q 909 2381 1050 2254 
Q 1191 2128 1613 1997 
L 2069 1856 
Q 2541 1709 2748 1489 
Q 2956 1269 2956 922 
Q 2956 450 2595 179 
Q 2234 -91 1600 -91 
Q 1278 -91 972 -22 
Q 666 47 359 184 
z
" transform="scale(0.015625)"/>
        <path id="DejaVuSerif-74" d="M 691 2988 
L 184 2988 
L 184 3322 
L 691 3322 
L 691 4353 
L 1269 4353 
L 1269 3322 
L 2350 3322 
L 2350 2988 
L 1269 2988 
L 1269 878 
Q 1269 456 1350 337 
Q 1431 219 1650 219 
Q 1875 219 1978 351 
Q 2081 484 2088 781 
L 2522 781 
Q 2497 328 2275 118 
Q 2053 -91 1600 -91 
Q 1103 -91 897 129 
Q 691 350 691 878 
L 691 2988 
z
" transform="scale(0.015625)"/>
        <path id="DejaVuSerif-72" d="M 3059 3328 
L 3059 2497 
L 2728 2497 
Q 2713 2744 2591 2866 
Q 2469 2988 2234 2988 
Q 1809 2988 1582 2694 
Q 1356 2400 1356 1850 
L 1356 331 
L 2022 331 
L 2022 0 
L 263 0 
L 263 331 
L 781 331 
L 781 2994 
L 231 2994 
L 231 3322 
L 1356 3322 
L 1356 2731 
Q 1525 3078 1790 3245 
Q 2056 3413 2438 3413 
Q 2578 3413 2733 3391 
Q 2888 3369 3059 3328 
z
" transform="scale(0.015625)"/>
        <path id="DejaVuSerif-6c" d="M 1313 331 
L 1856 331 
L 1856 0 
L 184 0 
L 184 331 
L 738 331 
L 738 4531 
L 184 4531 
L 184 4863 
L 1313 4863 
L 1313 331 
z
" transform="scale(0.015625)"/>
       </defs>
       <use xlink:href="#DejaVuSerif-4b"/>
       <use xlink:href="#DejaVuSerif-65" transform="translate(72.082031 0)"/>
       <use xlink:href="#DejaVuSerif-73" transform="translate(131.261719 0)"/>
       <use xlink:href="#DejaVuSerif-74" transform="translate(182.580078 0)"/>
       <use xlink:href="#DejaVuSerif-72" transform="translate(222.765625 0)"/>
       <use xlink:href="#DejaVuSerif-65" transform="translate(270.568359 0)"/>
       <use xlink:href="#DejaVuSerif-6c" transform="translate(329.748047 0)"/>
      </g>
     </g>
    </g>
    <g id="xtick_2">
     <g id="line2d_3">
      <path d="M 221.835998 299.987875 
L 221.835998 33.875875 
" clip-path="url(#pc202818b30)" style="fill: none; stroke-dasharray: 2.96,1.28; stroke-dashoffset: 0; stroke: #b0b0b0; stroke-opacity: 0.25; stroke-width: 0.8"/>
     </g>
     <g id="line2d_4">
      <g>
       <use xlink:href="#m21afc2f65a" x="221.835998" y="299.987875" style="stroke: #000000; stroke-width: 0.8"/>
      </g>
     </g>
     <g id="text_2">
      <!-- Rust hyper/axum -->
      <g transform="translate(153.507416 351.782537) rotate(-30) scale(0.09 -0.09)">
       <defs>
        <path id="DejaVuSerif-52" d="M 3066 2316 
Q 3284 2256 3442 2114 
Q 3600 1972 3725 1716 
L 4403 331 
L 4972 331 
L 4972 0 
L 3872 0 
L 3144 1484 
Q 2934 1916 2759 2042 
Q 2584 2169 2278 2169 
L 1581 2169 
L 1581 331 
L 2241 331 
L 2241 0 
L 353 0 
L 353 331 
L 947 331 
L 947 4331 
L 353 4331 
L 353 4666 
L 2719 4666 
Q 3400 4666 3770 4341 
Q 4141 4016 4141 3419 
Q 4141 2938 3870 2661 
Q 3600 2384 3066 2316 
z
M 1581 2503 
L 2503 2503 
Q 2975 2503 3200 2726 
Q 3425 2950 3425 3419 
Q 3425 3888 3200 4109 
Q 2975 4331 2503 4331 
L 1581 4331 
L 1581 2503 
z
" transform="scale(0.015625)"/>
        <path id="DejaVuSerif-75" d="M 2266 3322 
L 3341 3322 
L 3341 331 
L 3884 331 
L 3884 0 
L 2766 0 
L 2766 588 
Q 2606 256 2353 82 
Q 2100 -91 1766 -91 
Q 1213 -91 952 223 
Q 691 538 691 1209 
L 691 2988 
L 172 2988 
L 172 3322 
L 1269 3322 
L 1269 1388 
Q 1269 781 1417 556 
Q 1566 331 1947 331 
Q 2347 331 2556 625 
Q 2766 919 2766 1478 
L 2766 2988 
L 2266 2988 
L 2266 3322 
z
" transform="scale(0.015625)"/>
        <path id="DejaVuSerif-20" transform="scale(0.015625)"/>
        <path id="DejaVuSerif-68" d="M 263 0 
L 263 331 
L 781 331 
L 781 4531 
L 231 4531 
L 231 4863 
L 1356 4863 
L 1356 2731 
Q 1516 3069 1770 3241 
Q 2025 3413 2363 3413 
Q 2913 3413 3172 3097 
Q 3431 2781 3431 2113 
L 3431 331 
L 3944 331 
L 3944 0 
L 2356 0 
L 2356 331 
L 2853 331 
L 2853 1931 
Q 2853 2541 2704 2764 
Q 2556 2988 2175 2988 
Q 1775 2988 1565 2697 
Q 1356 2406 1356 1850 
L 1356 331 
L 1856 331 
L 1856 0 
L 263 0 
z
" transform="scale(0.015625)"/>
        <path id="DejaVuSerif-79" d="M 1381 -609 
L 1600 -56 
L 359 2988 
L -19 2988 
L -19 3322 
L 1509 3322 
L 1509 2988 
L 978 2988 
L 1913 703 
L 2847 2988 
L 2350 2988 
L 2350 3322 
L 3597 3322 
L 3597 2988 
L 3225 2988 
L 1703 -750 
Q 1547 -1138 1356 -1280 
Q 1166 -1422 819 -1422 
Q 672 -1422 517 -1397 
Q 363 -1372 206 -1325 
L 206 -691 
L 500 -691 
Q 519 -903 608 -995 
Q 697 -1088 884 -1088 
Q 1056 -1088 1161 -992 
Q 1266 -897 1381 -609 
z
" transform="scale(0.015625)"/>
        <path id="DejaVuSerif-70" d="M 1313 1825 
L 1313 1497 
Q 1313 897 1542 583 
Q 1772 269 2209 269 
Q 2650 269 2876 622 
Q 3103 975 3103 1663 
Q 3103 2353 2876 2703 
Q 2650 3053 2209 3053 
Q 1772 3053 1542 2737 
Q 1313 2422 1313 1825 
z
M 738 2988 
L 184 2988 
L 184 3322 
L 1313 3322 
L 1313 2803 
Q 1481 3116 1742 3264 
Q 2003 3413 2388 3413 
Q 3000 3413 3387 2928 
Q 3775 2444 3775 1663 
Q 3775 881 3387 395 
Q 3000 -91 2388 -91 
Q 2003 -91 1742 57 
Q 1481 206 1313 519 
L 1313 -997 
L 1856 -997 
L 1856 -1331 
L 184 -1331 
L 184 -997 
L 738 -997 
L 738 2988 
z
" transform="scale(0.015625)"/>
        <path id="DejaVuSerif-2f" d="M 1656 4666 
L 2156 4666 
L 500 -594 
L 0 -594 
L 1656 4666 
z
" transform="scale(0.015625)"/>
        <path id="DejaVuSerif-61" d="M 2547 1044 
L 2547 1747 
L 1806 1747 
Q 1378 1747 1168 1562 
Q 959 1378 959 997 
Q 959 650 1171 447 
Q 1384 244 1747 244 
Q 2106 244 2326 466 
Q 2547 688 2547 1044 
z
M 3122 2075 
L 3122 331 
L 3634 331 
L 3634 0 
L 2547 0 
L 2547 359 
Q 2356 128 2106 18 
Q 1856 -91 1522 -91 
Q 969 -91 644 203 
Q 319 497 319 997 
Q 319 1513 691 1797 
Q 1063 2081 1741 2081 
L 2547 2081 
L 2547 2309 
Q 2547 2688 2317 2895 
Q 2088 3103 1672 3103 
Q 1328 3103 1125 2947 
Q 922 2791 872 2484 
L 575 2484 
L 575 3156 
Q 875 3284 1158 3348 
Q 1441 3413 1709 3413 
Q 2400 3413 2761 3070 
Q 3122 2728 3122 2075 
z
" transform="scale(0.015625)"/>
        <path id="DejaVuSerif-78" d="M 1863 2028 
L 2559 2988 
L 2113 2988 
L 2113 3322 
L 3391 3322 
L 3391 2988 
L 2950 2988 
L 2059 1759 
L 3097 331 
L 3531 331 
L 3531 0 
L 1997 0 
L 1997 331 
L 2419 331 
L 1697 1325 
L 972 331 
L 1403 331 
L 1403 0 
L 141 0 
L 141 331 
L 581 331 
L 1497 1594 
L 488 2988 
L 78 2988 
L 78 3322 
L 1563 3322 
L 1563 2988 
L 1166 2988 
L 1863 2028 
z
" transform="scale(0.015625)"/>
        <path id="DejaVuSerif-6d" d="M 3316 2675 
Q 3481 3041 3739 3227 
Q 3997 3413 4341 3413 
Q 4863 3413 5119 3089 
Q 5375 2766 5375 2113 
L 5375 331 
L 5894 331 
L 5894 0 
L 4300 0 
L 4300 331 
L 4800 331 
L 4800 2047 
Q 4800 2556 4650 2772 
Q 4500 2988 4153 2988 
Q 3769 2988 3567 2697 
Q 3366 2406 3366 1850 
L 3366 331 
L 3866 331 
L 3866 0 
L 2291 0 
L 2291 331 
L 2791 331 
L 2791 2069 
Q 2791 2566 2641 2777 
Q 2491 2988 2144 2988 
Q 1759 2988 1557 2697 
Q 1356 2406 1356 1850 
L 1356 331 
L 1856 331 
L 1856 0 
L 263 0 
L 263 331 
L 781 331 
L 781 2994 
L 231 2994 
L 231 3322 
L 1356 3322 
L 1356 2731 
Q 1516 3063 1762 3238 
Q 2009 3413 2322 3413 
Q 2709 3413 2968 3220 
Q 3228 3028 3316 2675 
z
" transform="scale(0.015625)"/>
       </defs>
       <use xlink:href="#DejaVuSerif-52"/>
       <use xlink:href="#DejaVuSerif-75" transform="translate(75.292969 0)"/>
       <use xlink:href="#DejaVuSerif-73" transform="translate(139.697266 0)"/>
       <use xlink:href="#DejaVuSerif-74" transform="translate(191.015625 0)"/>
       <use xlink:href="#DejaVuSerif-20" transform="translate(231.201172 0)"/>
       <use xlink:href="#DejaVuSerif-68" transform="translate(262.988281 0)"/>
       <use xlink:href="#DejaVuSerif-79" transform="translate(327.392578 0)"/>
       <use xlink:href="#DejaVuSerif-70" transform="translate(383.886719 0)"/>
       <use xlink:href="#DejaVuSerif-65" transform="translate(447.900391 0)"/>
       <use xlink:href="#DejaVuSerif-72" transform="translate(507.080078 0)"/>
       <use xlink:href="#DejaVuSerif-2f" transform="translate(554.882812 0)"/>
       <use xlink:href="#DejaVuSerif-61" transform="translate(588.574219 0)"/>
       <use xlink:href="#DejaVuSerif-78" transform="translate(648.193359 0)"/>
       <use xlink:href="#DejaVuSerif-75" transform="translate(704.589844 0)"/>
       <use xlink:href="#DejaVuSerif-6d" transform="translate(768.994141 0)"/>
      </g>
     </g>
    </g>
    <g id="xtick_3">
     <g id="line2d_5">
      <path d="M 327.96 299.987875 
L 327.96 33.875875 
" clip-path="url(#pc202818b30)" style="fill: none; stroke-dasharray: 2.96,1.28; stroke-dashoffset: 0; stroke: #b0b0b0; stroke-opacity: 0.25; stroke-width: 0.8"/>
     </g>
     <g id="line2d_6">
      <g>
       <use xlink:href="#m21afc2f65a" x="327.96" y="299.987875" style="stroke: #000000; stroke-width: 0.8"/>
      </g>
     </g>
     <g id="text_3">
      <!-- Node http -->
      <g transform="translate(287.157879 335.927068) rotate(-30) scale(0.09 -0.09)">
       <defs>
        <path id="DejaVuSerif-4e" d="M 313 0 
L 313 331 
L 941 331 
L 941 4331 
L 313 4331 
L 313 4666 
L 1509 4666 
L 4306 984 
L 4306 4331 
L 3681 4331 
L 3681 4666 
L 5319 4666 
L 5319 4331 
L 4691 4331 
L 4691 -91 
L 4313 -91 
L 1325 3841 
L 1325 331 
L 1953 331 
L 1953 0 
L 313 0 
z
" transform="scale(0.015625)"/>
        <path id="DejaVuSerif-6f" d="M 1925 219 
Q 2388 219 2623 584 
Q 2859 950 2859 1663 
Q 2859 2375 2623 2739 
Q 2388 3103 1925 3103 
Q 1463 3103 1227 2739 
Q 991 2375 991 1663 
Q 991 950 1228 584 
Q 1466 219 1925 219 
z
M 1925 -91 
Q 1200 -91 759 389 
Q 319 869 319 1663 
Q 319 2456 758 2934 
Q 1197 3413 1925 3413 
Q 2653 3413 3092 2934 
Q 3531 2456 3531 1663 
Q 3531 869 3092 389 
Q 2653 -91 1925 -91 
z
" transform="scale(0.015625)"/>
        <path id="DejaVuSerif-64" d="M 3359 331 
L 3909 331 
L 3909 0 
L 2784 0 
L 2784 519 
Q 2616 206 2355 57 
Q 2094 -91 1709 -91 
Q 1097 -91 708 395 
Q 319 881 319 1663 
Q 319 2444 706 2928 
Q 1094 3413 1709 3413 
Q 2094 3413 2355 3264 
Q 2616 3116 2784 2803 
L 2784 4531 
L 2241 4531 
L 2241 4863 
L 3359 4863 
L 3359 331 
z
M 2784 1497 
L 2784 1825 
Q 2784 2422 2554 2737 
Q 2325 3053 1888 3053 
Q 1444 3053 1217 2703 
Q 991 2353 991 1663 
Q 991 975 1217 622 
Q 1444 269 1888 269 
Q 2325 269 2554 583 
Q 2784 897 2784 1497 
z
" transform="scale(0.015625)"/>
       </defs>
       <use xlink:href="#DejaVuSerif-4e"/>
       <use xlink:href="#DejaVuSerif-6f" transform="translate(87.5 0)"/>
       <use xlink:href="#DejaVuSerif-64" transform="translate(147.705078 0)"/>
       <use xlink:href="#DejaVuSerif-65" transform="translate(211.71875 0)"/>
       <use xlink:href="#DejaVuSerif-20" transform="translate(270.898438 0)"/>
       <use xlink:href="#DejaVuSerif-68" transform="translate(302.685547 0)"/>
       <use xlink:href="#DejaVuSerif-74" transform="translate(367.089844 0)"/>
       <use xlink:href="#DejaVuSerif-74" transform="translate(407.275391 0)"/>
       <use xlink:href="#DejaVuSerif-70" transform="translate(447.460938 0)"/>
      </g>
     </g>
    </g>
    <g id="xtick_4">
     <g id="line2d_7">
      <path d="M 434.084002 299.987875 
L 434.084002 33.875875 
" clip-path="url(#pc202818b30)" style="fill: none; stroke-dasharray: 2.96,1.28; stroke-dashoffset: 0; stroke: #b0b0b0; stroke-opacity: 0.25; stroke-width: 0.8"/>
     </g>
     <g id="line2d_8">
      <g>
       <use xlink:href="#m21afc2f65a" x="434.084002" y="299.987875" style="stroke: #000000; stroke-width: 0.8"/>
      </g>
     </g>
     <g id="text_4">
      <!-- Vert.x -->
      <g transform="translate(409.887241 326.339958) rotate(-30) scale(0.09 -0.09)">
       <defs>
        <path id="DejaVuSerif-56" d="M 1119 4331 
L 2497 750 
L 3872 4331 
L 3347 4331 
L 3347 4666 
L 4716 4666 
L 4716 4331 
L 4263 4331 
L 2597 0 
L 2059 0 
L 403 4331 
L -63 4331 
L -63 4666 
L 1638 4666 
L 1638 4331 
L 1119 4331 
z
" transform="scale(0.015625)"/>
        <path id="DejaVuSerif-2e" d="M 603 325 
Q 603 500 722 622 
Q 841 744 1019 744 
Q 1191 744 1312 622 
Q 1434 500 1434 325 
Q 1434 153 1312 31 
Q 1191 -91 1019 -91 
Q 841 -91 722 29 
Q 603 150 603 325 
z
" transform="scale(0.015625)"/>
       </defs>
       <use xlink:href="#DejaVuSerif-56"/>
       <use xlink:href="#DejaVuSerif-65" transform="translate(63.091797 0)"/>
       <use xlink:href="#DejaVuSerif-72" transform="translate(122.271484 0)"/>
       <use xlink:href="#DejaVuSerif-74" transform="translate(170.074219 0)"/>
       <use xlink:href="#DejaVuSerif-2e" transform="translate(210.259766 0)"/>
       <use xlink:href="#DejaVuSerif-78" transform="translate(242.046875 0)"/>
      </g>
     </g>
    </g>
    <g id="xtick_5">
     <g id="line2d_9">
      <path d="M 540.208003 299.987875 
L 540.208003 33.875875 
" clip-path="url(#pc202818b30)" style="fill: none; stroke-dasharray: 2.96,1.28; stroke-dashoffset: 0; stroke: #b0b0b0; stroke-opacity: 0.25; stroke-width: 0.8"/>
     </g>
     <g id="line2d_10">
      <g>
       <use xlink:href="#m21afc2f65a" x="540.208003" y="299.987875" style="stroke: #000000; stroke-width: 0.8"/>
      </g>
     </g>
     <g id="text_5">
      <!-- Go net/http -->
      <g transform="translate(494.210542 338.926599) rotate(-30) scale(0.09 -0.09)">
       <defs>
        <path id="DejaVuSerif-47" d="M 4097 3272 
Q 3988 3856 3641 4136 
Q 3294 4416 2675 4416 
Q 1869 4416 1472 3897 
Q 1075 3378 1075 2328 
Q 1075 1300 1484 772 
Q 1894 244 2688 244 
Q 3041 244 3362 331 
Q 3684 419 3975 594 
L 3975 1797 
L 3097 1797 
L 3097 2131 
L 4609 2131 
L 4609 391 
Q 4194 150 3714 29 
Q 3234 -91 2688 -91 
Q 1631 -91 995 570 
Q 359 1231 359 2328 
Q 359 3434 996 4092 
Q 1634 4750 2713 4750 
Q 3113 4750 3539 4658 
Q 3966 4566 4447 4378 
L 4447 3272 
L 4097 3272 
z
" transform="scale(0.015625)"/>
        <path id="DejaVuSerif-6e" d="M 263 0 
L 263 331 
L 781 331 
L 781 2988 
L 231 2988 
L 231 3322 
L 1356 3322 
L 1356 2731 
Q 1516 3069 1770 3241 
Q 2025 3413 2363 3413 
Q 2913 3413 3172 3097 
Q 3431 2781 3431 2113 
L 3431 331 
L 3944 331 
L 3944 0 
L 2356 0 
L 2356 331 
L 2853 331 
L 2853 1931 
Q 2853 2541 2703 2767 
Q 2553 2994 2175 2994 
Q 1775 2994 1565 2701 
Q 1356 2409 1356 1850 
L 1356 331 
L 1856 331 
L 1856 0 
L 263 0 
z
" transform="scale(0.015625)"/>
       </defs>
       <use xlink:href="#DejaVuSerif-47"/>
       <use xlink:href="#DejaVuSerif-6f" transform="translate(79.882812 0)"/>
       <use xlink:href="#DejaVuSerif-20" transform="translate(140.087891 0)"/>
       <use xlink:href="#DejaVuSerif-6e" transform="translate(171.875 0)"/>
       <use xlink:href="#DejaVuSerif-65" transform="translate(236.279297 0)"/>
       <use xlink:href="#DejaVuSerif-74" transform="translate(295.458984 0)"/>
       <use xlink:href="#DejaVuSerif-2f" transform="translate(335.644531 0)"/>
       <use xlink:href="#DejaVuSerif-68" transform="translate(369.335938 0)"/>
       <use xlink:href="#DejaVuSerif-74" transform="translate(433.740234 0)"/>
       <use xlink:href="#DejaVuSerif-74" transform="translate(473.925781 0)"/>
       <use xlink:href="#DejaVuSerif-70" transform="translate(514.111328 0)"/>
      </g>
     </g>
    </g>
   </g>
   <g id="matplotlib.axis_2">
    <g id="ytick_1">
     <g id="line2d_11">
      <path d="M 48.96 282.797373 
L 606.96 282.797373 
" clip-path="url(#pc202818b30)" style="fill: none; stroke-dasharray: 2.96,1.28; stroke-dashoffset: 0; stroke: #b0b0b0; stroke-opacity: 0.3; stroke-width: 0.8"/>
     </g>
     <g id="line2d_12">
      <defs>
       <path id="m61c185287e" d="M 0 0 
L -3.5 0 
" style="stroke: #000000; stroke-width: 0.8"/>
      </defs>
      <g>
       <use xlink:href="#m61c185287e" x="48.96" y="282.797373" style="stroke: #000000; stroke-width: 0.8"/>
      </g>
     </g>
     <g id="text_6">
      <!-- $\mathdefault{10^{-1}}$ -->
      <g transform="translate(20.9 286.216669) scale(0.09 -0.09)">
       <defs>
        <path id="DejaVuSerif-31" d="M 909 0 
L 909 331 
L 1722 331 
L 1722 4213 
L 781 3603 
L 781 4013 
L 1919 4750 
L 2350 4750 
L 2350 331 
L 3163 331 
L 3163 0 
L 909 0 
z
" transform="scale(0.015625)"/>
        <path id="DejaVuSerif-30" d="M 2034 219 
Q 2513 219 2750 744 
Q 2988 1269 2988 2328 
Q 2988 3391 2750 3916 
Q 2513 4441 2034 4441 
Q 1556 4441 1318 3916 
Q 1081 3391 1081 2328 
Q 1081 1269 1318 744 
Q 1556 219 2034 219 
z
M 2034 -91 
Q 1275 -91 848 546 
Q 422 1184 422 2328 
Q 422 3475 848 4112 
Q 1275 4750 2034 4750 
Q 2797 4750 3222 4112 
Q 3647 3475 3647 2328 
Q 3647 1184 3222 546 
Q 2797 -91 2034 -91 
z
" transform="scale(0.015625)"/>
        <path id="DejaVuSerif-2212" d="M 678 2259 
L 4684 2259 
L 4684 1753 
L 678 1753 
L 678 2259 
z
" transform="scale(0.015625)"/>
       </defs>
       <use xlink:href="#DejaVuSerif-31" transform="translate(0 0.7125)"/>
       <use xlink:href="#DejaVuSerif-30" transform="translate(63.623047 0.7125)"/>
       <use xlink:href="#DejaVuSerif-2212" transform="translate(128.154453 37.046875) scale(0.7)"/>
       <use xlink:href="#DejaVuSerif-31" transform="translate(186.806797 37.046875) scale(0.7)"/>
      </g>
     </g>
    </g>
    <g id="ytick_2">
     <g id="line2d_13">
      <path d="M 48.96 171.460358 
L 606.96 171.460358 
" clip-path="url(#pc202818b30)" style="fill: none; stroke-dasharray: 2.96,1.28; stroke-dashoffset: 0; stroke: #b0b0b0; stroke-opacity: 0.3; stroke-width: 0.8"/>
     </g>
     <g id="line2d_14">
      <g>
       <use xlink:href="#m61c185287e" x="48.96" y="171.460358" style="stroke: #000000; stroke-width: 0.8"/>
      </g>
     </g>
     <g id="text_7">
      <!-- $\mathdefault{10^{0}}$ -->
      <g transform="translate(26.12 174.879655) scale(0.09 -0.09)">
       <use xlink:href="#DejaVuSerif-31" transform="translate(0 0.7125)"/>
       <use xlink:href="#DejaVuSerif-30" transform="translate(63.623047 0.7125)"/>
       <use xlink:href="#DejaVuSerif-30" transform="translate(128.154453 37.046875) scale(0.7)"/>
      </g>
     </g>
    </g>
    <g id="ytick_3">
     <g id="line2d_15">
      <path d="M 48.96 60.123344 
L 606.96 60.123344 
" clip-path="url(#pc202818b30)" style="fill: none; stroke-dasharray: 2.96,1.28; stroke-dashoffset: 0; stroke: #b0b0b0; stroke-opacity: 0.3; stroke-width: 0.8"/>
     </g>
     <g id="line2d_16">
      <g>
       <use xlink:href="#m61c185287e" x="48.96" y="60.123344" style="stroke: #000000; stroke-width: 0.8"/>
      </g>
     </g>
     <g id="text_8">
      <!-- $\mathdefault{10^{1}}$ -->
      <g transform="translate(26.12 63.542641) scale(0.09 -0.09)">
       <use xlink:href="#DejaVuSerif-31" transform="translate(0 0.7125)"/>
       <use xlink:href="#DejaVuSerif-30" transform="translate(63.623047 0.7125)"/>
       <use xlink:href="#DejaVuSerif-31" transform="translate(128.154453 37.046875) scale(0.7)"/>
      </g>
     </g>
    </g>
    <g id="ytick_4">
     <g id="line2d_17">
      <defs>
       <path id="m24c8e4803b" d="M 0 0 
L -2 0 
" style="stroke: #000000; stroke-width: 0.6"/>
      </defs>
      <g>
       <use xlink:href="#m24c8e4803b" x="48.96" y="293.587044" style="stroke: #000000; stroke-width: 0.6"/>
      </g>
     </g>
    </g>
    <g id="ytick_5">
     <g id="line2d_18">
      <g>
       <use xlink:href="#m24c8e4803b" x="48.96" y="287.891875" style="stroke: #000000; stroke-width: 0.6"/>
      </g>
     </g>
    </g>
    <g id="ytick_6">
     <g id="line2d_19">
      <g>
       <use xlink:href="#m24c8e4803b" x="48.96" y="249.281592" style="stroke: #000000; stroke-width: 0.6"/>
      </g>
     </g>
    </g>
    <g id="ytick_7">
     <g id="line2d_20">
      <g>
       <use xlink:href="#m24c8e4803b" x="48.96" y="229.676117" style="stroke: #000000; stroke-width: 0.6"/>
      </g>
     </g>
    </g>
    <g id="ytick_8">
     <g id="line2d_21">
      <g>
       <use xlink:href="#m24c8e4803b" x="48.96" y="215.765811" style="stroke: #000000; stroke-width: 0.6"/>
      </g>
     </g>
    </g>
    <g id="ytick_9">
     <g id="line2d_22">
      <g>
       <use xlink:href="#m24c8e4803b" x="48.96" y="204.976139" style="stroke: #000000; stroke-width: 0.6"/>
      </g>
     </g>
    </g>
    <g id="ytick_10">
     <g id="line2d_23">
      <g>
       <use xlink:href="#m24c8e4803b" x="48.96" y="196.160336" style="stroke: #000000; stroke-width: 0.6"/>
      </g>
     </g>
    </g>
    <g id="ytick_11">
     <g id="line2d_24">
      <g>
       <use xlink:href="#m24c8e4803b" x="48.96" y="188.70668" style="stroke: #000000; stroke-width: 0.6"/>
      </g>
     </g>
    </g>
    <g id="ytick_12">
     <g id="line2d_25">
      <g>
       <use xlink:href="#m24c8e4803b" x="48.96" y="182.25003" style="stroke: #000000; stroke-width: 0.6"/>
      </g>
     </g>
    </g>
    <g id="ytick_13">
     <g id="line2d_26">
      <g>
       <use xlink:href="#m24c8e4803b" x="48.96" y="176.554861" style="stroke: #000000; stroke-width: 0.6"/>
      </g>
     </g>
    </g>
    <g id="ytick_14">
     <g id="line2d_27">
      <g>
       <use xlink:href="#m24c8e4803b" x="48.96" y="137.944577" style="stroke: #000000; stroke-width: 0.6"/>
      </g>
     </g>
    </g>
    <g id="ytick_15">
     <g id="line2d_28">
      <g>
       <use xlink:href="#m24c8e4803b" x="48.96" y="118.339102" style="stroke: #000000; stroke-width: 0.6"/>
      </g>
     </g>
    </g>
    <g id="ytick_16">
     <g id="line2d_29">
      <g>
       <use xlink:href="#m24c8e4803b" x="48.96" y="104.428796" style="stroke: #000000; stroke-width: 0.6"/>
      </g>
     </g>
    </g>
    <g id="ytick_17">
     <g id="line2d_30">
      <g>
       <use xlink:href="#m24c8e4803b" x="48.96" y="93.639125" style="stroke: #000000; stroke-width: 0.6"/>
      </g>
     </g>
    </g>
    <g id="ytick_18">
     <g id="line2d_31">
      <g>
       <use xlink:href="#m24c8e4803b" x="48.96" y="84.823321" style="stroke: #000000; stroke-width: 0.6"/>
      </g>
     </g>
    </g>
    <g id="ytick_19">
     <g id="line2d_32">
      <g>
       <use xlink:href="#m24c8e4803b" x="48.96" y="77.369666" style="stroke: #000000; stroke-width: 0.6"/>
      </g>
     </g>
    </g>
    <g id="ytick_20">
     <g id="line2d_33">
      <g>
       <use xlink:href="#m24c8e4803b" x="48.96" y="70.913015" style="stroke: #000000; stroke-width: 0.6"/>
      </g>
     </g>
    </g>
    <g id="ytick_21">
     <g id="line2d_34">
      <g>
       <use xlink:href="#m24c8e4803b" x="48.96" y="65.217846" style="stroke: #000000; stroke-width: 0.6"/>
      </g>
     </g>
    </g>
    <g id="text_9">
     <!-- $\mu$s per chunk / frame (best of available cells) -->
     <g transform="translate(14.8 279.831875) rotate(-90) scale(0.1 -0.1)">
      <defs>
       <path id="DejaVuSans-Oblique-3bc" d="M -84 -1331 
L 856 3500 
L 1434 3500 
L 1009 1322 
Q 997 1256 987 1175 
Q 978 1094 978 1013 
Q 978 722 1161 565 
Q 1344 409 1684 409 
Q 2147 409 2431 671 
Q 2716 934 2816 1459 
L 3213 3500 
L 3788 3500 
L 3266 809 
Q 3253 750 3248 706 
Q 3244 663 3244 628 
Q 3244 531 3283 486 
Q 3322 441 3406 441 
Q 3438 441 3492 456 
Q 3547 472 3647 513 
L 3559 50 
Q 3422 -19 3297 -55 
Q 3172 -91 3053 -91 
Q 2847 -91 2730 40 
Q 2613 172 2613 403 
Q 2438 153 2195 31 
Q 1953 -91 1625 -91 
Q 1334 -91 1117 43 
Q 900 178 831 397 
L 494 -1331 
L -84 -1331 
z
" transform="scale(0.015625)"/>
       <path id="DejaVuSerif-63" d="M 3291 997 
Q 3169 466 2822 187 
Q 2475 -91 1925 -91 
Q 1200 -91 759 389 
Q 319 869 319 1663 
Q 319 2459 759 2936 
Q 1200 3413 1925 3413 
Q 2241 3413 2553 3339 
Q 2866 3266 3181 3116 
L 3181 2266 
L 2847 2266 
Q 2781 2703 2561 2903 
Q 2341 3103 1931 3103 
Q 1466 3103 1228 2742 
Q 991 2381 991 1663 
Q 991 944 1227 581 
Q 1463 219 1931 219 
Q 2303 219 2525 412 
Q 2747 606 2828 997 
L 3291 997 
z
" transform="scale(0.015625)"/>
       <path id="DejaVuSerif-6b" d="M 1831 0 
L 219 0 
L 219 331 
L 738 331 
L 738 4531 
L 184 4531 
L 184 4863 
L 1313 4863 
L 1313 1697 
L 2713 2988 
L 2234 2988 
L 2234 3322 
L 3738 3322 
L 3738 2988 
L 3169 2988 
L 2181 2075 
L 3444 331 
L 3922 331 
L 3922 0 
L 2284 0 
L 2284 331 
L 2759 331 
L 1766 1697 
L 1313 1275 
L 1313 331 
L 1831 331 
L 1831 0 
z
" transform="scale(0.015625)"/>
       <path id="DejaVuSerif-66" d="M 2753 4078 
L 2450 4078 
Q 2447 4313 2317 4434 
Q 2188 4556 1941 4556 
Q 1619 4556 1487 4379 
Q 1356 4203 1356 3750 
L 1356 3322 
L 2284 3322 
L 2284 2988 
L 1356 2988 
L 1356 331 
L 2094 331 
L 2094 0 
L 231 0 
L 231 331 
L 781 331 
L 781 2988 
L 231 2988 
L 231 3322 
L 781 3322 
L 781 3738 
Q 781 4294 1070 4578 
Q 1359 4863 1919 4863 
Q 2128 4863 2337 4825 
Q 2547 4788 2753 4709 
L 2753 4078 
z
" transform="scale(0.015625)"/>
       <path id="DejaVuSerif-28" d="M 2041 -997 
Q 1281 -656 893 83 
Q 506 822 506 1931 
Q 506 3044 893 3783 
Q 1281 4522 2041 4863 
L 2041 4556 
Q 1559 4225 1350 3623 
Q 1141 3022 1141 1931 
Q 1141 844 1350 242 
Q 1559 -359 2041 -691 
L 2041 -997 
z
" transform="scale(0.015625)"/>
       <path id="DejaVuSerif-62" d="M 738 331 
L 738 4531 
L 184 4531 
L 184 4863 
L 1313 4863 
L 1313 2803 
Q 1481 3116 1742 3264 
Q 2003 3413 2388 3413 
Q 3000 3413 3387 2928 
Q 3775 2444 3775 1663 
Q 3775 881 3387 395 
Q 3000 -91 2388 -91 
Q 2003 -91 1742 57 
Q 1481 206 1313 519 
L 1313 0 
L 184 0 
L 184 331 
L 738 331 
z
M 1313 1497 
Q 1313 897 1542 583 
Q 1772 269 2209 269 
Q 2650 269 2876 622 
Q 3103 975 3103 1663 
Q 3103 2353 2876 2703 
Q 2650 3053 2209 3053 
Q 1772 3053 1542 2737 
Q 1313 2422 1313 1825 
L 1313 1497 
z
" transform="scale(0.015625)"/>
       <path id="DejaVuSerif-76" d="M 1581 0 
L 359 2988 
L -19 2988 
L -19 3322 
L 1509 3322 
L 1509 2988 
L 978 2988 
L 1913 703 
L 2847 2988 
L 2350 2988 
L 2350 3322 
L 3597 3322 
L 3597 2988 
L 3225 2988 
L 2003 0 
L 1581 0 
z
" transform="scale(0.015625)"/>
       <path id="DejaVuSerif-69" d="M 622 4353 
Q 622 4497 726 4603 
Q 831 4709 978 4709 
Q 1122 4709 1226 4603 
Q 1331 4497 1331 4353 
Q 1331 4206 1228 4103 
Q 1125 4000 978 4000 
Q 831 4000 726 4103 
Q 622 4206 622 4353 
z
M 1356 331 
L 1900 331 
L 1900 0 
L 231 0 
L 231 331 
L 781 331 
L 781 2988 
L 231 2988 
L 231 3322 
L 1356 3322 
L 1356 331 
z
" transform="scale(0.015625)"/>
       <path id="DejaVuSerif-29" d="M 453 -997 
L 453 -691 
Q 934 -359 1145 242 
Q 1356 844 1356 1931 
Q 1356 3022 1145 3623 
Q 934 4225 453 4556 
L 453 4863 
Q 1216 4522 1603 3783 
Q 1991 3044 1991 1931 
Q 1991 822 1603 83 
Q 1216 -656 453 -997 
z
" transform="scale(0.015625)"/>
      </defs>
      <use xlink:href="#DejaVuSans-Oblique-3bc" transform="translate(0 0.015625)"/>
      <use xlink:href="#DejaVuSerif-73" transform="translate(63.623047 0.015625)"/>
      <use xlink:href="#DejaVuSerif-20" transform="translate(114.941406 0.015625)"/>
      <use xlink:href="#DejaVuSerif-70" transform="translate(146.728516 0.015625)"/>
      <use xlink:href="#DejaVuSerif-65" transform="translate(210.742188 0.015625)"/>
      <use xlink:href="#DejaVuSerif-72" transform="translate(269.921875 0.015625)"/>
      <use xlink:href="#DejaVuSerif-20" transform="translate(317.724609 0.015625)"/>
      <use xlink:href="#DejaVuSerif-63" transform="translate(349.511719 0.015625)"/>
      <use xlink:href="#DejaVuSerif-68" transform="translate(405.517578 0.015625)"/>
      <use xlink:href="#DejaVuSerif-75" transform="translate(469.921875 0.015625)"/>
      <use xlink:href="#DejaVuSerif-6e" transform="translate(534.326172 0.015625)"/>
      <use xlink:href="#DejaVuSerif-6b" transform="translate(598.730469 0.015625)"/>
      <use xlink:href="#DejaVuSerif-20" transform="translate(659.326172 0.015625)"/>
      <use xlink:href="#DejaVuSerif-2f" transform="translate(691.113281 0.015625)"/>
      <use xlink:href="#DejaVuSerif-20" transform="translate(724.804688 0.015625)"/>
      <use xlink:href="#DejaVuSerif-66" transform="translate(756.591797 0.015625)"/>
      <use xlink:href="#DejaVuSerif-72" transform="translate(793.603516 0.015625)"/>
      <use xlink:href="#DejaVuSerif-61" transform="translate(841.40625 0.015625)"/>
      <use xlink:href="#DejaVuSerif-6d" transform="translate(901.025391 0.015625)"/>
      <use xlink:href="#DejaVuSerif-65" transform="translate(995.849609 0.015625)"/>
      <use xlink:href="#DejaVuSerif-20" transform="translate(1055.029297 0.015625)"/>
      <use xlink:href="#DejaVuSerif-28" transform="translate(1086.816406 0.015625)"/>
      <use xlink:href="#DejaVuSerif-62" transform="translate(1125.830078 0.015625)"/>
      <use xlink:href="#DejaVuSerif-65" transform="translate(1189.84375 0.015625)"/>
      <use xlink:href="#DejaVuSerif-73" transform="translate(1249.023438 0.015625)"/>
      <use xlink:href="#DejaVuSerif-74" transform="translate(1300.341797 0.015625)"/>
      <use xlink:href="#DejaVuSerif-20" transform="translate(1340.527344 0.015625)"/>
      <use xlink:href="#DejaVuSerif-6f" transform="translate(1372.314453 0.015625)"/>
      <use xlink:href="#DejaVuSerif-66" transform="translate(1432.519531 0.015625)"/>
      <use xlink:href="#DejaVuSerif-20" transform="translate(1469.53125 0.015625)"/>
      <use xlink:href="#DejaVuSerif-61" transform="translate(1501.318359 0.015625)"/>
      <use xlink:href="#DejaVuSerif-76" transform="translate(1560.9375 0.015625)"/>
      <use xlink:href="#DejaVuSerif-61" transform="translate(1617.431641 0.015625)"/>
      <use xlink:href="#DejaVuSerif-69" transform="translate(1677.050781 0.015625)"/>
      <use xlink:href="#DejaVuSerif-6c" transform="translate(1709.033203 0.015625)"/>
      <use xlink:href="#DejaVuSerif-61" transform="translate(1741.015625 0.015625)"/>
      <use xlink:href="#DejaVuSerif-62" transform="translate(1800.634766 0.015625)"/>
      <use xlink:href="#DejaVuSerif-6c" transform="translate(1864.648438 0.015625)"/>
      <use xlink:href="#DejaVuSerif-65" transform="translate(1896.630859 0.015625)"/>
      <use xlink:href="#DejaVuSerif-20" transform="translate(1955.810547 0.015625)"/>
      <use xlink:href="#DejaVuSerif-63" transform="translate(1987.597656 0.015625)"/>
      <use xlink:href="#DejaVuSerif-65" transform="translate(2043.603516 0.015625)"/>
      <use xlink:href="#DejaVuSerif-6c" transform="translate(2102.783203 0.015625)"/>
      <use xlink:href="#DejaVuSerif-6c" transform="translate(2134.765625 0.015625)"/>
      <use xlink:href="#DejaVuSerif-73" transform="translate(2166.748047 0.015625)"/>
      <use xlink:href="#DejaVuSerif-29" transform="translate(2218.066406 0.015625)"/>
     </g>
    </g>
   </g>
   <g id="line2d_35">
    <path d="M 48.96 171.460358 
L 606.96 171.460358 
" clip-path="url(#pc202818b30)" style="fill: none; stroke: #888888; stroke-opacity: 0.5; stroke-width: 0.4; stroke-linecap: square"/>
   </g>
   <g id="patch_15">
    <path d="M 48.96 299.987875 
L 48.96 33.875875 
" style="fill: none; stroke: #000000; stroke-width: 0.8; stroke-linejoin: miter; stroke-linecap: square"/>
   </g>
   <g id="patch_16">
    <path d="M 48.96 299.987875 
L 606.96 299.987875 
" style="fill: none; stroke: #000000; stroke-width: 0.8; stroke-linejoin: miter; stroke-linecap: square"/>
   </g>
   <g id="text_10">
    <!-- Per-protocol per-chunk cost. -->
    <g transform="translate(248.660313 15.558281) scale(0.11 -0.11)">
     <defs>
      <path id="DejaVuSerif-50" d="M 1581 2375 
L 2406 2375 
Q 2872 2375 3115 2626 
Q 3359 2878 3359 3353 
Q 3359 3831 3115 4081 
Q 2872 4331 2406 4331 
L 1581 4331 
L 1581 2375 
z
M 353 0 
L 353 331 
L 947 331 
L 947 4331 
L 353 4331 
L 353 4666 
L 2559 4666 
Q 3259 4666 3668 4311 
Q 4078 3956 4078 3353 
Q 4078 2753 3668 2397 
Q 3259 2041 2559 2041 
L 1581 2041 
L 1581 331 
L 2303 331 
L 2303 0 
L 353 0 
z
" transform="scale(0.015625)"/>
      <path id="DejaVuSerif-2d" d="M 281 1959 
L 1881 1959 
L 1881 1472 
L 281 1472 
L 281 1959 
z
" transform="scale(0.015625)"/>
     </defs>
     <use xlink:href="#DejaVuSerif-50"/>
     <use xlink:href="#DejaVuSerif-65" transform="translate(62.785156 0)"/>
     <use xlink:href="#DejaVuSerif-72" transform="translate(121.964844 0)"/>
     <use xlink:href="#DejaVuSerif-2d" transform="translate(169.767578 0)"/>
     <use xlink:href="#DejaVuSerif-70" transform="translate(203.556641 0)"/>
     <use xlink:href="#DejaVuSerif-72" transform="translate(267.570312 0)"/>
     <use xlink:href="#DejaVuSerif-6f" transform="translate(315.373047 0)"/>
     <use xlink:href="#DejaVuSerif-74" transform="translate(375.578125 0)"/>
     <use xlink:href="#DejaVuSerif-6f" transform="translate(415.763672 0)"/>
     <use xlink:href="#DejaVuSerif-63" transform="translate(475.96875 0)"/>
     <use xlink:href="#DejaVuSerif-6f" transform="translate(531.974609 0)"/>
     <use xlink:href="#DejaVuSerif-6c" transform="translate(592.179688 0)"/>
     <use xlink:href="#DejaVuSerif-20" transform="translate(624.162109 0)"/>
     <use xlink:href="#DejaVuSerif-70" transform="translate(655.949219 0)"/>
     <use xlink:href="#DejaVuSerif-65" transform="translate(719.962891 0)"/>
     <use xlink:href="#DejaVuSerif-72" transform="translate(779.142578 0)"/>
     <use xlink:href="#DejaVuSerif-2d" transform="translate(826.945312 0)"/>
     <use xlink:href="#DejaVuSerif-63" transform="translate(860.734375 0)"/>
     <use xlink:href="#DejaVuSerif-68" transform="translate(916.740234 0)"/>
     <use xlink:href="#DejaVuSerif-75" transform="translate(981.144531 0)"/>
     <use xlink:href="#DejaVuSerif-6e" transform="translate(1045.548828 0)"/>
     <use xlink:href="#DejaVuSerif-6b" transform="translate(1109.953125 0)"/>
     <use xlink:href="#DejaVuSerif-20" transform="translate(1170.548828 0)"/>
     <use xlink:href="#DejaVuSerif-63" transform="translate(1202.335938 0)"/>
     <use xlink:href="#DejaVuSerif-6f" transform="translate(1258.341797 0)"/>
     <use xlink:href="#DejaVuSerif-73" transform="translate(1318.546875 0)"/>
     <use xlink:href="#DejaVuSerif-74" transform="translate(1369.865234 0)"/>
     <use xlink:href="#DejaVuSerif-2e" transform="translate(1410.050781 0)"/>
    </g>
    <!-- Kestrel batches in HTTP/1 chunked but not HTTP/2; WebSocket batching is ecosystem-dependent. -->
    <g transform="translate(52.954844 27.875875) scale(0.11 -0.11)">
     <defs>
      <path id="DejaVuSerif-48" d="M 353 0 
L 353 331 
L 947 331 
L 947 4331 
L 353 4331 
L 353 4666 
L 2175 4666 
L 2175 4331 
L 1581 4331 
L 1581 2719 
L 4000 2719 
L 4000 4331 
L 3406 4331 
L 3406 4666 
L 5228 4666 
L 5228 4331 
L 4634 4331 
L 4634 331 
L 5228 331 
L 5228 0 
L 3406 0 
L 3406 331 
L 4000 331 
L 4000 2338 
L 1581 2338 
L 1581 331 
L 2175 331 
L 2175 0 
L 353 0 
z
" transform="scale(0.015625)"/>
      <path id="DejaVuSerif-54" d="M 1222 0 
L 1222 331 
L 1819 331 
L 1819 4294 
L 447 4294 
L 447 3566 
L 63 3566 
L 63 4666 
L 4206 4666 
L 4206 3566 
L 3822 3566 
L 3822 4294 
L 2450 4294 
L 2450 331 
L 3047 331 
L 3047 0 
L 1222 0 
z
" transform="scale(0.015625)"/>
      <path id="DejaVuSerif-32" d="M 819 3553 
L 469 3553 
L 469 4384 
Q 803 4563 1142 4656 
Q 1481 4750 1806 4750 
Q 2534 4750 2956 4397 
Q 3378 4044 3378 3438 
Q 3378 2753 2422 1800 
Q 2347 1728 2309 1691 
L 1131 513 
L 3078 513 
L 3078 1088 
L 3444 1088 
L 3444 0 
L 434 0 
L 434 341 
L 1850 1753 
Q 2319 2222 2519 2614 
Q 2719 3006 2719 3438 
Q 2719 3909 2473 4175 
Q 2228 4441 1797 4441 
Q 1350 4441 1106 4219 
Q 863 3997 819 3553 
z
" transform="scale(0.015625)"/>
      <path id="DejaVuSerif-3b" d="M 231 -622 
Q 525 -406 662 -114 
Q 800 178 800 594 
L 800 709 
L 1416 709 
Q 1391 175 1164 -208 
Q 938 -591 481 -872 
L 231 -622 
z
M 678 2363 
Q 678 2538 798 2658 
Q 919 2778 1094 2778 
Q 1269 2778 1389 2656 
Q 1509 2534 1509 2363 
Q 1509 2188 1389 2067 
Q 1269 1947 1094 1947 
Q 919 1947 798 2067 
Q 678 2188 678 2363 
z
" transform="scale(0.015625)"/>
      <path id="DejaVuSerif-57" d="M 4878 0 
L 4366 0 
L 3297 3794 
L 2228 0 
L 1716 0 
L 494 4331 
L 31 4331 
L 31 4666 
L 1734 4666 
L 1734 4331 
L 1153 4331 
L 2125 884 
L 3188 4666 
L 3694 4666 
L 4775 844 
L 5753 4331 
L 5216 4331 
L 5216 4666 
L 6559 4666 
L 6559 4331 
L 6100 4331 
L 4878 0 
z
" transform="scale(0.015625)"/>
      <path id="DejaVuSerif-53" d="M 594 225 
L 594 1288 
L 953 1284 
Q 969 753 1261 498 
Q 1553 244 2150 244 
Q 2706 244 2998 464 
Q 3291 684 3291 1106 
Q 3291 1444 3114 1625 
Q 2938 1806 2369 1978 
L 1753 2163 
Q 1084 2366 811 2669 
Q 538 2972 538 3500 
Q 538 4094 959 4422 
Q 1381 4750 2144 4750 
Q 2469 4750 2856 4679 
Q 3244 4609 3681 4475 
L 3681 3481 
L 3328 3481 
Q 3275 3975 2998 4195 
Q 2722 4416 2156 4416 
Q 1663 4416 1405 4214 
Q 1147 4013 1147 3628 
Q 1147 3294 1340 3103 
Q 1534 2913 2163 2725 
L 2741 2553 
Q 3375 2363 3645 2067 
Q 3916 1772 3916 1275 
Q 3916 597 3481 253 
Q 3047 -91 2188 -91 
Q 1803 -91 1404 -12 
Q 1006 66 594 225 
z
" transform="scale(0.015625)"/>
      <path id="DejaVuSerif-67" d="M 3359 2988 
L 3359 72 
Q 3359 -644 2965 -1033 
Q 2572 -1422 1844 -1422 
Q 1516 -1422 1216 -1362 
Q 916 -1303 641 -1184 
L 641 -488 
L 941 -488 
Q 997 -813 1206 -963 
Q 1416 -1113 1806 -1113 
Q 2313 -1113 2548 -827 
Q 2784 -541 2784 72 
L 2784 519 
Q 2616 206 2355 57 
Q 2094 -91 1709 -91 
Q 1097 -91 708 395 
Q 319 881 319 1663 
Q 319 2444 706 2928 
Q 1094 3413 1709 3413 
Q 2094 3413 2355 3264 
Q 2616 3116 2784 2803 
L 2784 3322 
L 3909 3322 
L 3909 2988 
L 3359 2988 
z
M 2784 1825 
Q 2784 2422 2554 2737 
Q 2325 3053 1888 3053 
Q 1444 3053 1217 2703 
Q 991 2353 991 1663 
Q 991 975 1217 622 
Q 1444 269 1888 269 
Q 2325 269 2554 583 
Q 2784 897 2784 1497 
L 2784 1825 
z
" transform="scale(0.015625)"/>
     </defs>
     <use xlink:href="#DejaVuSerif-4b"/>
     <use xlink:href="#DejaVuSerif-65" transform="translate(72.082031 0)"/>
     <use xlink:href="#DejaVuSerif-73" transform="translate(131.261719 0)"/>
     <use xlink:href="#DejaVuSerif-74" transform="translate(182.580078 0)"/>
     <use xlink:href="#DejaVuSerif-72" transform="translate(222.765625 0)"/>
     <use xlink:href="#DejaVuSerif-65" transform="translate(270.568359 0)"/>
     <use xlink:href="#DejaVuSerif-6c" transform="translate(329.748047 0)"/>
     <use xlink:href="#DejaVuSerif-20" transform="translate(361.730469 0)"/>
     <use xlink:href="#DejaVuSerif-62" transform="translate(393.517578 0)"/>
     <use xlink:href="#DejaVuSerif-61" transform="translate(457.53125 0)"/>
     <use xlink:href="#DejaVuSerif-74" transform="translate(517.150391 0)"/>
     <use xlink:href="#DejaVuSerif-63" transform="translate(557.335938 0)"/>
     <use xlink:href="#DejaVuSerif-68" transform="translate(613.341797 0)"/>
     <use xlink:href="#DejaVuSerif-65" transform="translate(677.746094 0)"/>
     <use xlink:href="#DejaVuSerif-73" transform="translate(736.925781 0)"/>
     <use xlink:href="#DejaVuSerif-20" transform="translate(788.244141 0)"/>
     <use xlink:href="#DejaVuSerif-69" transform="translate(820.03125 0)"/>
     <use xlink:href="#DejaVuSerif-6e" transform="translate(852.013672 0)"/>
     <use xlink:href="#DejaVuSerif-20" transform="translate(916.417969 0)"/>
     <use xlink:href="#DejaVuSerif-48" transform="translate(948.205078 0)"/>
     <use xlink:href="#DejaVuSerif-54" transform="translate(1035.412109 0)"/>
     <use xlink:href="#DejaVuSerif-54" transform="translate(1103.986328 0)"/>
     <use xlink:href="#DejaVuSerif-50" transform="translate(1170.685547 0)"/>
     <use xlink:href="#DejaVuSerif-2f" transform="translate(1237.970703 0)"/>
     <use xlink:href="#DejaVuSerif-31" transform="translate(1271.662109 0)"/>
     <use xlink:href="#DejaVuSerif-20" transform="translate(1335.285156 0)"/>
     <use xlink:href="#DejaVuSerif-63" transform="translate(1367.072266 0)"/>
     <use xlink:href="#DejaVuSerif-68" transform="translate(1423.078125 0)"/>
     <use xlink:href="#DejaVuSerif-75" transform="translate(1487.482422 0)"/>
     <use xlink:href="#DejaVuSerif-6e" transform="translate(1551.886719 0)"/>
     <use xlink:href="#DejaVuSerif-6b" transform="translate(1616.291016 0)"/>
     <use xlink:href="#DejaVuSerif-65" transform="translate(1676.886719 0)"/>
     <use xlink:href="#DejaVuSerif-64" transform="translate(1736.066406 0)"/>
     <use xlink:href="#DejaVuSerif-20" transform="translate(1800.080078 0)"/>
     <use xlink:href="#DejaVuSerif-62" transform="translate(1831.867188 0)"/>
     <use xlink:href="#DejaVuSerif-75" transform="translate(1895.880859 0)"/>
     <use xlink:href="#DejaVuSerif-74" transform="translate(1960.285156 0)"/>
     <use xlink:href="#DejaVuSerif-20" transform="translate(2000.470703 0)"/>
     <use xlink:href="#DejaVuSerif-6e" transform="translate(2032.257812 0)"/>
     <use xlink:href="#DejaVuSerif-6f" transform="translate(2096.662109 0)"/>
     <use xlink:href="#DejaVuSerif-74" transform="translate(2156.867188 0)"/>
     <use xlink:href="#DejaVuSerif-20" transform="translate(2197.052734 0)"/>
     <use xlink:href="#DejaVuSerif-48" transform="translate(2228.839844 0)"/>
     <use xlink:href="#DejaVuSerif-54" transform="translate(2316.046875 0)"/>
     <use xlink:href="#DejaVuSerif-54" transform="translate(2384.621094 0)"/>
     <use xlink:href="#DejaVuSerif-50" transform="translate(2451.320312 0)"/>
     <use xlink:href="#DejaVuSerif-2f" transform="translate(2518.605469 0)"/>
     <use xlink:href="#DejaVuSerif-32" transform="translate(2552.296875 0)"/>
     <use xlink:href="#DejaVuSerif-3b" transform="translate(2615.919922 0)"/>
     <use xlink:href="#DejaVuSerif-20" transform="translate(2649.611328 0)"/>
     <use xlink:href="#DejaVuSerif-57" transform="translate(2681.398438 0)"/>
     <use xlink:href="#DejaVuSerif-65" transform="translate(2776.056641 0)"/>
     <use xlink:href="#DejaVuSerif-62" transform="translate(2835.236328 0)"/>
     <use xlink:href="#DejaVuSerif-53" transform="translate(2899.25 0)"/>
     <use xlink:href="#DejaVuSerif-6f" transform="translate(2967.755859 0)"/>
     <use xlink:href="#DejaVuSerif-63" transform="translate(3027.960938 0)"/>
     <use xlink:href="#DejaVuSerif-6b" transform="translate(3083.966797 0)"/>
     <use xlink:href="#DejaVuSerif-65" transform="translate(3144.5625 0)"/>
     <use xlink:href="#DejaVuSerif-74" transform="translate(3203.742188 0)"/>
     <use xlink:href="#DejaVuSerif-20" transform="translate(3243.927734 0)"/>
     <use xlink:href="#DejaVuSerif-62" transform="translate(3275.714844 0)"/>
     <use xlink:href="#DejaVuSerif-61" transform="translate(3339.728516 0)"/>
     <use xlink:href="#DejaVuSerif-74" transform="translate(3399.347656 0)"/>
     <use xlink:href="#DejaVuSerif-63" transform="translate(3439.533203 0)"/>
     <use xlink:href="#DejaVuSerif-68" transform="translate(3495.539062 0)"/>
     <use xlink:href="#DejaVuSerif-69" transform="translate(3559.943359 0)"/>
     <use xlink:href="#DejaVuSerif-6e" transform="translate(3591.925781 0)"/>
     <use xlink:href="#DejaVuSerif-67" transform="translate(3656.330078 0)"/>
     <use xlink:href="#DejaVuSerif-20" transform="translate(3720.34375 0)"/>
     <use xlink:href="#DejaVuSerif-69" transform="translate(3752.130859 0)"/>
     <use xlink:href="#DejaVuSerif-73" transform="translate(3784.113281 0)"/>
     <use xlink:href="#DejaVuSerif-20" transform="translate(3835.431641 0)"/>
     <use xlink:href="#DejaVuSerif-65" transform="translate(3867.21875 0)"/>
     <use xlink:href="#DejaVuSerif-63" transform="translate(3926.398438 0)"/>
     <use xlink:href="#DejaVuSerif-6f" transform="translate(3982.404297 0)"/>
     <use xlink:href="#DejaVuSerif-73" transform="translate(4042.609375 0)"/>
     <use xlink:href="#DejaVuSerif-79" transform="translate(4093.927734 0)"/>
     <use xlink:href="#DejaVuSerif-73" transform="translate(4150.421875 0)"/>
     <use xlink:href="#DejaVuSerif-74" transform="translate(4201.740234 0)"/>
     <use xlink:href="#DejaVuSerif-65" transform="translate(4241.925781 0)"/>
     <use xlink:href="#DejaVuSerif-6d" transform="translate(4301.105469 0)"/>
     <use xlink:href="#DejaVuSerif-2d" transform="translate(4395.929688 0)"/>
     <use xlink:href="#DejaVuSerif-64" transform="translate(4429.71875 0)"/>
     <use xlink:href="#DejaVuSerif-65" transform="translate(4493.732422 0)"/>
     <use xlink:href="#DejaVuSerif-70" transform="translate(4552.912109 0)"/>
     <use xlink:href="#DejaVuSerif-65" transform="translate(4616.925781 0)"/>
     <use xlink:href="#DejaVuSerif-6e" transform="translate(4676.105469 0)"/>
     <use xlink:href="#DejaVuSerif-64" transform="translate(4740.509766 0)"/>
     <use xlink:href="#DejaVuSerif-65" transform="translate(4804.523438 0)"/>
     <use xlink:href="#DejaVuSerif-6e" transform="translate(4863.703125 0)"/>
     <use xlink:href="#DejaVuSerif-74" transform="translate(4928.107422 0)"/>
     <use xlink:href="#DejaVuSerif-2e" transform="translate(4968.292969 0)"/>
    </g>
   </g>
   <g id="legend_1">
    <g id="patch_17">
     <path d="M 55.26 80.706812 
L 160.72875 80.706812 
Q 162.52875 80.706812 162.52875 78.906812 
L 162.52875 40.175875 
Q 162.52875 38.375875 160.72875 38.375875 
L 55.26 38.375875 
Q 53.46 38.375875 53.46 40.175875 
L 53.46 78.906812 
Q 53.46 80.706812 55.26 80.706812 
z
" style="fill: #ffffff; opacity: 0.95; stroke: #cccccc; stroke-linejoin: miter"/>
    </g>
    <g id="patch_18">
     <path d="M 57.06 48.814469 
L 75.06 48.814469 
L 75.06 42.514469 
L 57.06 42.514469 
z
" style="fill: #3776ab; stroke: #000000; stroke-width: 0.5; stroke-linejoin: miter"/>
    </g>
    <g id="text_11">
     <!-- HTTP/1 chunked -->
     <g transform="translate(82.26 48.814469) scale(0.09 -0.09)">
      <use xlink:href="#DejaVuSerif-48"/>
      <use xlink:href="#DejaVuSerif-54" transform="translate(87.207031 0)"/>
      <use xlink:href="#DejaVuSerif-54" transform="translate(155.78125 0)"/>
      <use xlink:href="#DejaVuSerif-50" transform="translate(222.480469 0)"/>
      <use xlink:href="#DejaVuSerif-2f" transform="translate(289.765625 0)"/>
      <use xlink:href="#DejaVuSerif-31" transform="translate(323.457031 0)"/>
      <use xlink:href="#DejaVuSerif-20" transform="translate(387.080078 0)"/>
      <use xlink:href="#DejaVuSerif-63" transform="translate(418.867188 0)"/>
      <use xlink:href="#DejaVuSerif-68" transform="translate(474.873047 0)"/>
      <use xlink:href="#DejaVuSerif-75" transform="translate(539.277344 0)"/>
      <use xlink:href="#DejaVuSerif-6e" transform="translate(603.681641 0)"/>
      <use xlink:href="#DejaVuSerif-6b" transform="translate(668.085938 0)"/>
      <use xlink:href="#DejaVuSerif-65" transform="translate(728.681641 0)"/>
      <use xlink:href="#DejaVuSerif-64" transform="translate(787.861328 0)"/>
     </g>
    </g>
    <g id="patch_19">
     <path d="M 57.06 62.024781 
L 75.06 62.024781 
L 75.06 55.724781 
L 57.06 55.724781 
z
" style="fill: #ce422b; stroke: #000000; stroke-width: 0.5; stroke-linejoin: miter"/>
    </g>
    <g id="text_12">
     <!-- HTTP/2 DATA -->
     <g transform="translate(82.26 62.024781) scale(0.09 -0.09)">
      <defs>
       <path id="DejaVuSerif-44" d="M 1581 331 
L 2163 331 
Q 3072 331 3558 850 
Q 4044 1369 4044 2338 
Q 4044 3306 3559 3818 
Q 3075 4331 2163 4331 
L 1581 4331 
L 1581 331 
z
M 353 0 
L 353 331 
L 947 331 
L 947 4331 
L 353 4331 
L 353 4666 
L 2209 4666 
Q 3416 4666 4089 4050 
Q 4763 3434 4763 2338 
Q 4763 1238 4088 619 
Q 3413 0 2209 0 
L 353 0 
z
" transform="scale(0.015625)"/>
       <path id="DejaVuSerif-41" d="M 1281 1691 
L 2994 1691 
L 2138 3909 
L 1281 1691 
z
M -38 0 
L -38 331 
L 372 331 
L 2034 4666 
L 2559 4666 
L 4225 331 
L 4684 331 
L 4684 0 
L 2988 0 
L 2988 331 
L 3506 331 
L 3116 1356 
L 1153 1356 
L 763 331 
L 1275 331 
L 1275 0 
L -38 0 
z
" transform="scale(0.015625)"/>
      </defs>
      <use xlink:href="#DejaVuSerif-48"/>
      <use xlink:href="#DejaVuSerif-54" transform="translate(87.207031 0)"/>
      <use xlink:href="#DejaVuSerif-54" transform="translate(155.78125 0)"/>
      <use xlink:href="#DejaVuSerif-50" transform="translate(222.480469 0)"/>
      <use xlink:href="#DejaVuSerif-2f" transform="translate(289.765625 0)"/>
      <use xlink:href="#DejaVuSerif-32" transform="translate(323.457031 0)"/>
      <use xlink:href="#DejaVuSerif-20" transform="translate(387.080078 0)"/>
      <use xlink:href="#DejaVuSerif-44" transform="translate(418.867188 0)"/>
      <use xlink:href="#DejaVuSerif-41" transform="translate(499.042969 0)"/>
      <use xlink:href="#DejaVuSerif-54" transform="translate(565.759766 0)"/>
      <use xlink:href="#DejaVuSerif-41" transform="translate(626.958984 0)"/>
     </g>
    </g>
    <g id="patch_20">
     <path d="M 57.06 75.235094 
L 75.06 75.235094 
L 75.06 68.935094 
L 57.06 68.935094 
z
" style="fill: #3c873a; stroke: #000000; stroke-width: 0.5; stroke-linejoin: miter"/>
    </g>
    <g id="text_13">
     <!-- WebSocket text -->
     <g transform="translate(82.26 75.235094) scale(0.09 -0.09)">
      <use xlink:href="#DejaVuSerif-57"/>
      <use xlink:href="#DejaVuSerif-65" transform="translate(94.658203 0)"/>
      <use xlink:href="#DejaVuSerif-62" transform="translate(153.837891 0)"/>
      <use xlink:href="#DejaVuSerif-53" transform="translate(217.851562 0)"/>
      <use xlink:href="#DejaVuSerif-6f" transform="translate(286.357422 0)"/>
      <use xlink:href="#DejaVuSerif-63" transform="translate(346.5625 0)"/>
      <use xlink:href="#DejaVuSerif-6b" transform="translate(402.568359 0)"/>
      <use xlink:href="#DejaVuSerif-65" transform="translate(463.164062 0)"/>
      <use xlink:href="#DejaVuSerif-74" transform="translate(522.34375 0)"/>
      <use xlink:href="#DejaVuSerif-20" transform="translate(562.529297 0)"/>
      <use xlink:href="#DejaVuSerif-74" transform="translate(594.316406 0)"/>
      <use xlink:href="#DejaVuSerif-65" transform="translate(634.501953 0)"/>
      <use xlink:href="#DejaVuSerif-78" transform="translate(693.681641 0)"/>
      <use xlink:href="#DejaVuSerif-74" transform="translate(750.078125 0)"/>
     </g>
    </g>
   </g>
  </g>
 </g>
 <defs>
  <clipPath id="pc202818b30">
   <rect x="48.96" y="33.875875" width="558" height="266.112"/>
  </clipPath>
 </defs>
</svg>
